<svg id="Vectorisé-HZH" xmlns="http://www.w3.org/2000/svg" xmlns:xlink="http://www.w3.org/1999/xlink" viewBox="0 0 185.93228 152.96281">
  <defs>
    <linearGradient id="Dégradé_sans_nom_49" data-name="Dégradé sans nom 49" x1="27.7234" y1="118.20858" x2="213.65568" y2="118.20858" gradientUnits="userSpaceOnUse">
      <stop offset="0.00335" stop-color="#ffce00"/>
      <stop offset="1" stop-color="#c6a000"/>
    </linearGradient>
  </defs>
  <title>Logo - HZH - 5</title>
  <g id="HZH-Bulding">
    <path d="M92.81813,57.80128a.67432.67432,0,0,0-.0374.15305c-.00546.20992-.00388.42-.00388.63007q-.00012,24.4179.00176,48.83579a6.562,6.562,0,0,0,.07306.99731,10.09494,10.09494,0,0,1,.01807,1.47893c-.921-.03414-1.78481-.18719-2.65624-.24322-.85872-.05523-1.71461-.15371-2.57318-.21213-.87969-.05985-1.76092-.09848-2.64185-.13838-.86011-.03895-1.72043-.07961-2.58112-.09775-.88186-.01859-1.76433-.01829-2.64644-.01241-.861.00575-1.722.02289-2.58273.04624-.88169.02392-1.76354.05091-2.64433.096-.85966.044-1.71834.10875-2.57694.17159-.87945.06434-1.75912.12813-2.63712.20927-.85695.07918-1.71271.17319-2.56752.27319q-1.31316.15362-2.62333.33243c-.85072.11477-1.69975.24212-2.55514.36477a.7957.7957,0,0,1-.05668-.19519q-.00336-33.144-.00219-66.27118a1.13472,1.13472,0,0,1,.63352-.301q6.71416-2.24048,13.4322-4.46931,8.32681-2.7708,16.65265-5.54447c.15643-.05207.31664-.09281.511-.14925.04381.78856.01652,1.53993.02142,2.29044.00493.75613.00109,1.51232.00109,2.26849V54.282c.20415.1154.39927.23044.59857.33767a66.25649,66.25649,0,0,1,11.40984,7.7021,55.85183,55.85183,0,0,1,9.606,10.37424,45.86626,45.86626,0,0,1,4.601,8.371c.5002,1.15483.98136,2.31793,1.47251,3.47669.04626.10917.102.2143.1589.33283.05453-.05183.10088-.07532.10088-.09881q.00463-20.13164.00306-40.30494c-.206-.09161-.407-.19243-.616-.27225q-7.993-3.05261-15.9873-6.10173c-.17484-.06672-.34652-.14169-.48552-.19879-.03915-.0497-.054-.06512-.06461-.083a.12267.12267,0,0,1-.0231-.05576q-.00149-13.51515-.001-27.04178a1.0217,1.0217,0,0,1,.49172-.24134q5.6889-1.92917,11.3763-3.86278,7.59447-2.57658,15.19044-5.14879c.17591-.05959.35626-.106.58516-.17352.01608.15123.03569.26553.03883.38029.00573.20989.00176.42.00176.63009q0,49.15086.00172,98.30171a2.63171,2.63171,0,0,0,.06129.93137c.10014.25343.37725.43973.58438.64766a57.93867,57.93867,0,0,0,8.59867,7.07262c.10385.07032.21337.13244.32195.19543.01447.0084.03908-.00064.059-.0016.01837-.00778.04208-.011.05368-.02458a.11564.11564,0,0,0,.01913-.05911,1.0364,1.0364,0,0,0,.00917-.125q.00816-31.60081.01637-63.20162a.65.65,0,0,1,.03489-.1141l31.07545-10.34927c.17056.10976.12174.244.12836.35883.00845.14654.00215.29394.00215.441q0,41.71521,0,83.43042v.73315A94.27748,94.27748,0,0,1,161.86,122.15073c-3.46953.35212-6.94627.59445-10.43427.63657a77.09733,77.09733,0,0,1-10.47226-.44383c-.02066-1.03465-.00646-2.08069-.00907-3.12637-.00255-1.02922-.00055-2.05846-.00055-3.08768v-3.17823c-1.70474-1.00486-3.37116-2.055-4.98107-3.19218-1.59195-1.12451-3.12389-2.32711-4.64183-3.61491a1.00795,1.00795,0,0,0-.08436.58209c-.01.20957-.00236.42-.00236.63v13.57567a1.31867,1.31867,0,0,1-.627-.054,71.12339,71.12339,0,0,1-9.82222-2.81482c-.01645-.12336-.04284-.26393-.052-.40562-.00943-.14642-.00213-.29393-.00213-.441q0-11.311.00668-22.622a2.12485,2.12485,0,0,0-.32518-1.181,76.71168,76.71168,0,0,1-3.92682-7.4603q-1.24341-2.61445-2.51478-5.2156a53.74815,53.74815,0,0,0-11.531-15.47151,68.14731,68.14731,0,0,0-9.05995-7.20736c-.1561-.104-.32138-.19421-.48422-.28765C92.88446,57.76469,92.85785,57.78509,92.81813,57.80128Z" transform="translate(-27.7234 -1.29298)" style="fill: #2b2b2d"/>
    <path d="M187.70641,80.95253q0-17.45325-.00091-34.90648a2.97553,2.97553,0,0,1,.09824-.93385,1.04217,1.04217,0,0,1,.70573-.73795,3.03,3.03,0,0,1,1.67547-.01034,1.0301,1.0301,0,0,1,.76744.83262,3.016,3.016,0,0,1,.05483.4996c.009.16754.00226.33594.00226.504q0,34.62294-.00118,69.24587a7.43685,7.43685,0,0,1-.03077.817,1.1151,1.1151,0,0,1-.81882,1.01024c-.29929.09551-.59973.18975-.90425.26616a1.11093,1.11093,0,0,1-1.46931-.87139,2.75159,2.75159,0,0,1-.07527-.62c-.00835-.819-.00346-1.63817-.00346-2.45728Q187.70638,97.27162,187.70641,80.95253Z" transform="translate(-27.7234 -1.29298)" style="fill: #2b2b2d"/>
    <path d="M150.71821,52.63338q0-17.45325-.00091-34.90647a2.97559,2.97559,0,0,1,.09824-.93386,1.04221,1.04221,0,0,1,.70573-.738,3.03,3.03,0,0,1,1.67547-.01034,1.0301,1.0301,0,0,1,.76744.83262,3.016,3.016,0,0,1,.05484.4996c.009.16755.00226.33594.00226.504q0,34.62294-.00119,69.24587a7.43465,7.43465,0,0,1-.03077.817,1.1151,1.1151,0,0,1-.81881,1.01023c-.29929.09551-.59973.18975-.90425.26616a1.11094,1.11094,0,0,1-1.46932-.87139,2.7521,2.7521,0,0,1-.07527-.62c-.00835-.819-.00346-1.63817-.00346-2.45728Q150.71819,68.95249,150.71821,52.63338Z" transform="translate(-27.7234 -1.29298)" style="fill: #2b2b2d"/>
  </g>
  <g id="VAGUE">
    <path d="M213.65568,108.93079c-.0202-.00575-.04886-.02321-.0594-.01559a40.50462,40.50462,0,0,1-4.69078,2.792,134.107,134.107,0,0,1-17.06826,7.556,143.43706,143.43706,0,0,1-16.67633,4.99859q-4.25816.99751-8.5743,1.71289c-2.27809.37726-4.56313.70165-6.8576.95109-2.40014.26093-4.807.44391-7.21976.56323-2.91837.14438-5.837.15447-8.75479.06973-1.82473-.053-3.64674-.20821-5.46918-.32937-2.01188-.13374-4.01151-.38835-6.00457-.683a84.09766,84.09766,0,0,1-13.28284-3.081c-3.03658-.9687-6.02655-2.06884-9.028-3.13711-3.31888-1.18123-6.66113-2.28809-10.08074-3.14607-2.36076-.5923-4.73907-1.10347-7.14781-1.45783-1.74362-.25652-3.48809-.51786-5.23985-.70543-1.79434-.19212-3.597-.31226-5.39784-.43654-2.70388-.18661-5.41239-.25022-8.12218-.21237-2.51985.03521-5.03845.11906-7.551.32711-1.63173.13511-3.265.25815-4.89278.43225-1.5019.16064-3.00079.35882-4.49465.58287-1.82525.27376-3.64672.57546-5.46471.89421-3.03757.53256-6.04288,1.2171-9.03406,1.96551-4.6203,1.156-9.15737,2.58591-13.65695,4.13978-.33651.11622-.67217.23489-1.00823.35242l-.15567-.05939a1.47849,1.47849,0,0,1,.54843-.377c.94594-.45138,1.8824-.92536,2.84421-1.34032a113.93739,113.93739,0,0,1,13.21605-4.66677q5.46717-1.59775,11.05041-2.72617c1.97372-.39635,3.95887-.74024,5.946-1.06366,1.67716-.273,3.36036-.521,5.04873-.70975,2.02306-.22622,4.05312-.39417,6.0825-.55823a108.33725,108.33725,0,0,1,11.20723-.23594q2.92926.06675,5.847.34588c1.37885.13343,2.75949.25667,4.13345.43079a72.46982,72.46982,0,0,1,16.95991,4.09751c2.56364.98422,5.1121,2.00795,7.6692,3.00928a77.55959,77.55959,0,0,0,9.68442,3.14132c2.20045.5432,4.42147.98133,6.65907,1.34237q2.67408.43149,5.36818.69875c1.33685.1311,2.67845.21687,4.0191.3052,3.12552.20595,6.25426.20327,9.38354.115,1.93151-.05451,3.86014-.16472,5.78407-.34575,1.46286-.13762,2.92813-.25854,4.386-.43841,1.6448-.20294,3.284-.45354,4.92293-.70136,2.67636-.40472,5.329-.93522,7.973-1.51386,4.11965-.90157,8.18929-1.99048,12.21867-3.23084a177.65378,177.65378,0,0,0,23.0202-8.94666c.45578-.21324.91309-.42359,1.37414-.62511.18919-.08268.39022-.13832.58585-.20626Z" transform="translate(-27.7234 -1.29298)" style="fill: url(#Dégradé_sans_nom_49)"/>
  </g>
  <g id="HOLDING">
    <path d="M59.63257,153.62544v-10.559H50.64951v10.559h-4.665V128.50426h4.665V138.559h8.98306V128.50426H64.2974v25.12118Zm32.65534-5.871a13.07321,13.07321,0,0,1-4.78112,4.75545,13.0961,13.0961,0,0,1-11.56581.74023,13.11677,13.11677,0,0,1-7.09239-7.0505,12.80726,12.80726,0,0,1-1.014-5.0303A13.10057,13.10057,0,0,1,80.95506,128a13.03219,13.03219,0,0,1,11.34115,6.56,12.98636,12.98636,0,0,1,1.76266,6.60931,12.75276,12.75276,0,0,1-1.771,6.58512Zm-4.02467-10.97774a8.47688,8.47688,0,0,0-3.0598-3.121,8.464,8.464,0,0,0-8.51374,0,8.57119,8.57119,0,0,0-3.52534,10.6772,8.90263,8.90263,0,0,0,4.57291,4.70184,7.78842,7.78842,0,0,0,3.20949.68225,7.91368,7.91368,0,0,0,4.19855-1.18159,8.83472,8.83472,0,0,0,3.09283-3.18742,8.60375,8.60375,0,0,0,.0251-8.57132Zm9.43858,16.84871V128.50426h4.66483v20.6138h7.70709v4.50738Zm34.85015-9.79615a13.17985,13.17985,0,0,1-.85652,2.60673,12.86856,12.86856,0,0,1-1.35528,2.34127,11.49783,11.49783,0,0,1-1.82138,1.95919,10.566,10.566,0,0,1-4.54816,2.31619,26.76026,26.76026,0,0,1-5.91174.57277h-5.38845V128.50426h5.2884q1.513,0,2.97654.13308a20.70189,20.70189,0,0,1,2.73584.42307,12.68836,12.68836,0,0,1,2.53593.88011,10.09888,10.09888,0,0,1,2.31164,1.48629,11.47959,11.47959,0,0,1,3.17666,4.35805,13.518,13.518,0,0,1,1.14742,5.38787,12.52783,12.52783,0,0,1-.2909,2.65656Zm-4.757-5.20777a7.88555,7.88555,0,0,0-1.14121-2.31014,7.60732,7.60732,0,0,0-1.82364-1.80363,7.4395,7.4395,0,0,0-3.09793-1.2386,27.19633,27.19633,0,0,0-4.06394-.25751h-.333v16.10642h.58316q1.49829,0,2.68959-.0995a10.15053,10.15053,0,0,0,2.36489-.49045,7.84529,7.84529,0,0,0,2.17385-1.12195,7.448,7.448,0,0,0,2.23989-2.73434,7.93775,7.93775,0,0,0,.79139-3.49909,8.70669,8.70669,0,0,0-.383-2.55121Zm8.69893,15.00392V128.50426h4.66482v25.12118Zm24.74872,0-10.56449-18.308v18.308h-4.66485V128.50426h5.24705l10.48124,18.34292V128.50426h4.66483v25.12118Zm19.09068-12.82857h16.4051v.54917a12.23,12.23,0,0,1-1.82875,6.55454,13.06933,13.06933,0,0,1-4.921,4.65861,13.80242,13.80242,0,0,1-11.76155.70719,13.71977,13.71977,0,0,1-4.31391-2.76833,12.92826,12.92826,0,0,1-2.94257-4.1655,12.453,12.453,0,0,1-1.06378-5.12979,12.65682,12.65682,0,0,1,1.0553-5.14662,13.29071,13.29071,0,0,1,2.91763-4.21516,13.54112,13.54112,0,0,1,4.31427-2.82645A13.20388,13.20388,0,0,1,183.28933,128a13.65944,13.65944,0,0,1,5.0288.96242,13.34972,13.34972,0,0,1,4.339,2.74512,11.4097,11.4097,0,0,1,2.818,4.13886h-5.571a7.47558,7.47558,0,0,0-1.804-1.78568,8.74169,8.74169,0,0,0-2.295-1.14612,8.03079,8.03079,0,0,0-2.5197-.4072,8.56889,8.56889,0,0,0-5.82017,2.18026,8.22934,8.22934,0,0,0-1.50517,1.7891,9.24292,9.24292,0,0,0-1.02224,2.23047,7.86737,7.86737,0,0,0-.36607,2.32166,8.1796,8.1796,0,0,0,.65694,3.16286,8.36829,8.36829,0,0,0,1.75477,2.69584,9.23185,9.23185,0,0,0,3.00184,2.097,8.7421,8.7421,0,0,0,3.51777.73248,8.5381,8.5381,0,0,0,7.35161-4.53891H180.33334v-4.38128Z" transform="translate(-27.7234 -1.29298)" style="fill: #2b2b2d"/>
  </g>
</svg>
